<svg width="13" height="7" viewBox="0 0 13 7" fill="none" xmlns="http://www.w3.org/2000/svg">
<path fill-rule="evenodd" clip-rule="evenodd" d="M7.24808 6.7808L12.6131 1.4328C12.7538 1.28828 12.8326 1.09452 12.8326 0.892796C12.8326 0.69107 12.7538 0.497315 12.6131 0.352796C12.4686 0.212057 12.2748 0.133301 12.0731 0.133301C11.8714 0.133301 11.6776 0.212057 11.5331 0.352796L6.71708 5.1688L1.90008 0.352796C1.75556 0.212057 1.56181 0.133301 1.36008 0.133301C1.15836 0.133301 0.9646 0.212057 0.820081 0.352796C0.679342 0.497315 0.600586 0.69107 0.600586 0.892796C0.600586 1.09452 0.679342 1.28828 0.820081 1.4328L6.16708 6.7808C6.31165 6.92183 6.50561 7.00078 6.70758 7.00078C6.90955 7.00078 7.10352 6.92183 7.24808 6.7808Z" fill="#C4C4C4"/>
</svg>
