<svg width="10" height="9" viewBox="0 0 10 9" fill="none" xmlns="http://www.w3.org/2000/svg">
<path d="M1.53033 4.46967C1.23744 4.17678 0.762563 4.17678 0.46967 4.46967C0.176777 4.76256 0.176777 5.23744 0.46967 5.53033L1.53033 4.46967ZM4 8L3.46967 8.53033C3.62556 8.68622 3.84215 8.76563 4.06186 8.74744C4.28157 8.72926 4.48216 8.61533 4.6103 8.43593L4 8ZM9.6103 1.43593C9.85106 1.09887 9.77299 0.630457 9.43593 0.3897C9.09887 0.148943 8.63046 0.227012 8.3897 0.564071L9.6103 1.43593ZM0.46967 5.53033L3.46967 8.53033L4.53033 7.46967L1.53033 4.46967L0.46967 5.53033ZM4.6103 8.43593L9.6103 1.43593L8.3897 0.564071L3.3897 7.56407L4.6103 8.43593Z" fill="#8EC682"/>
</svg>
