<svg width="60" height="67" viewBox="0 0 60 67" fill="none" xmlns="http://www.w3.org/2000/svg">
<g filter="url(#filter0_d_865_3036)">
<path fill-rule="evenodd" clip-rule="evenodd" d="M34.9153 52.3107C35.3473 51.7228 35.9807 51.3194 36.6858 51.1323C47.8054 48.182 56 38.0479 56 26C56 11.6406 44.3594 0 30 0C15.6406 0 4 11.6406 4 26C4 38.0479 12.1946 48.182 23.3142 51.1323C24.0193 51.3194 24.6527 51.7228 25.0847 52.3107L29.1942 57.9033C29.5938 58.4471 30.4062 58.4472 30.8058 57.9033L34.9153 52.3107Z" fill="white"/>
</g>
<path d="M30.0698 12.1651C30.9179 12.8181 31.7136 13.5354 32.4495 14.3106C31.5848 15.0148 30.7661 15.7726 29.9982 16.5796C29.254 15.7983 28.4624 15.0627 27.6277 14.3769C28.3811 13.5757 29.1986 12.8361 30.0721 12.1651H30.0698ZM30.0698 8C27.117 9.79775 24.5962 12.213 22.6836 15.0769C25.6092 16.8553 28.106 19.2475 29.9982 22.0851C31.9163 19.2135 34.4521 16.7983 37.4237 15.0128C35.5136 12.1752 33.0045 9.7825 30.0698 8V8Z" fill="#E45D6A"/>
<path d="M15.9988 18.2493C16.3751 18.3774 16.7467 18.5147 17.116 18.6656C17.9944 19.0288 18.8433 19.4586 19.655 19.9511C21.8655 21.2878 23.7514 23.0911 25.1785 25.2324C25.6714 25.9736 26.1088 26.7495 26.4872 27.554C27.8912 30.5272 28.4315 33.8292 28.0475 37.0897C27.8664 38.5989 27.4925 40.0791 26.935 41.495C24.6408 40.7304 22.5274 39.5118 20.7229 37.9132C18.9185 36.3146 17.4606 34.3694 16.4379 32.1955C15.4152 30.0216 14.8489 27.6644 14.7734 25.2671C14.6979 22.8697 15.1148 20.4822 15.9988 18.2493ZM12.9382 11.7466C10.7003 15.0929 9.36692 18.9525 9.06557 22.9557C8.76422 26.959 9.50504 30.9719 11.2171 34.6101C12.9292 38.2484 15.5551 41.3902 18.8435 43.7347C22.1319 46.0792 25.9727 47.5478 29.998 48L30.0187 47.968C32.0592 44.901 33.3476 41.4036 33.7811 37.7553C34.293 33.4408 33.5791 29.0705 31.7199 25.1364C31.2218 24.079 30.6462 23.0592 29.998 22.0851C28.103 19.2466 25.603 16.8543 22.6741 15.0769C21.6065 14.4273 20.489 13.8621 19.3318 13.3866C17.2881 12.5474 15.1361 11.9954 12.9382 11.7466Z" fill="#E45D6A"/>
<path d="M48.7754 34.6102C47.0708 38.2364 44.4577 41.3696 41.1849 43.7115C37.9122 46.0533 34.0888 47.5258 30.0791 47.9886H30.0491H29.9868L29.936 47.9108C27.7202 44.569 26.4036 40.7212 26.1111 36.7331C25.8186 32.745 26.56 28.7491 28.2649 25.1249C28.7672 24.0711 29.3466 23.0552 29.9983 22.0851C31.9164 19.2135 34.4522 16.7983 37.4237 15.0128C38.0131 14.6606 38.6155 14.3335 39.2311 14.0316C41.6883 12.8276 44.3371 12.0537 47.0604 11.7443C49.3 15.0904 50.634 18.9509 50.9343 22.9551C51.2346 26.9593 50.4912 30.9728 48.7754 34.6102Z" fill="#8EC682"/>
<defs>
<filter id="filter0_d_865_3036" x="0" y="0" width="60" height="66.3112" filterUnits="userSpaceOnUse" color-interpolation-filters="sRGB">
<feFlood flood-opacity="0" result="BackgroundImageFix"/>
<feColorMatrix in="SourceAlpha" type="matrix" values="0 0 0 0 0 0 0 0 0 0 0 0 0 0 0 0 0 0 127 0" result="hardAlpha"/>
<feOffset dy="4"/>
<feGaussianBlur stdDeviation="2"/>
<feComposite in2="hardAlpha" operator="out"/>
<feColorMatrix type="matrix" values="0 0 0 0 0 0 0 0 0 0 0 0 0 0 0 0 0 0 0.15 0"/>
<feBlend mode="normal" in2="BackgroundImageFix" result="effect1_dropShadow_865_3036"/>
<feBlend mode="normal" in="SourceGraphic" in2="effect1_dropShadow_865_3036" result="shape"/>
</filter>
</defs>
</svg>
